<?xml version="1.0" encoding="UTF-8"?><!DOCTYPE svg PUBLIC "-//W3C//DTD SVG 1.1//EN" "http://www.w3.org/Graphics/SVG/1.1/DTD/svg11.dtd"><svg xmlns="http://www.w3.org/2000/svg"><symbol id="down" viewBox="0 0 838 508"><title>down</title><path d="M0 63c0-17 6.167-31.667 18.5-44C30.833 6.667 45.667.5 63 .5S95 6.667 107 19l312 311L730.5 19C742.833 6.667 757.667.5 775 .5s32 6.167 44 18.5c12.333 12.333 18.5 27.083 18.5 44.25s-6.167 31.917-18.5 44.25l-400 400-400.5-400C6.167 94.5 0 79.667 0 63z" fill="#000" fill-rule="evenodd"/></symbol><symbol id="play" viewBox="0 0 675 810"><title>play</title><path d="M0 752V58C0 31.667 7.583 14.083 22.75 5.25 37.917-3.583 55.833-1 76.5 13l578 357.5c13.667 9.667 20.5 21.167 20.5 34.5 0 6-1.667 11.917-5 17.75s-6.667 10.083-10 12.75l-5.5 4-578 358c-20.667 13.667-38.583 16.083-53.75 7.25C7.583 795.917 0 778.333 0 752z" fill="#000" fill-rule="evenodd"/></symbol></svg>